<svg xmlns="http://www.w3.org/2000/svg" viewBox="0 0 960 540" role="img" aria-labelledby="title desc">
<title id="title">A little corner of the 1994 web</title><desc id="desc">Original editorial illustration of a handmade personal homepage displayed on a CRT monitor.</desc>
<defs><linearGradient id="bg" x2="0" y2="1"><stop stop-color="#14204e"/><stop offset="1" stop-color="#24104b"/></linearGradient><linearGradient id="screen" x2="0" y2="1"><stop stop-color="#08142e"/><stop offset="1" stop-color="#17264b"/></linearGradient></defs>
<rect width="960" height="540" fill="url(#bg)"/><path d="M0 430h960v110H0z" fill="#100d24"/><circle cx="88" cy="68" r="4" fill="#fff"/><circle cx="841" cy="102" r="5" fill="#67f4e1"/><circle cx="750" cy="57" r="3" fill="#ff70c8"/><circle cx="180" cy="128" r="3" fill="#ffe86b"/>
<rect x="183" y="56" width="594" height="363" rx="28" fill="#aaa9b7" stroke="#eee9ff" stroke-width="5"/><rect x="210" y="82" width="540" height="290" rx="12" fill="url(#screen)" stroke="#555469" stroke-width="8"/><rect x="231" y="103" width="498" height="248" fill="#10143b"/>
<text x="480" y="146" text-anchor="middle" fill="#ff73cf" font-family="Verdana,sans-serif" font-weight="bold" font-size="27">★ WELCOME TO MY PAGE ★</text><path d="M248 165h464" stroke="#70f5dc" stroke-width="3" stroke-dasharray="3 9"/>
<rect x="255" y="185" width="172" height="123" fill="#202557" stroke="#ffe36c" stroke-width="3"/><text x="341" y="218" text-anchor="middle" fill="#fff" font-family="Verdana,sans-serif" font-size="16">MY FAVORITE</text><text x="341" y="246" text-anchor="middle" fill="#ffdc68" font-family="Verdana,sans-serif" font-size="18">LINKS + STUFF</text><text x="341" y="281" text-anchor="middle" fill="#7ff5da" font-family="Verdana,sans-serif" font-size="14">click around!</text>
<rect x="449" y="186" width="245" height="42" fill="#541c61"/><text x="571" y="213" text-anchor="middle" fill="#fff" font-family="Verdana,sans-serif" font-size="16">UNDER CONSTRUCTION</text><text x="462" y="263" fill="#fff" font-family="Verdana,sans-serif" font-size="18">Hello, net surfer!</text><text x="462" y="294" fill="#a7b7ff" font-family="Verdana,sans-serif" font-size="14">Last updated: 10/94</text>
<path d="M420 419h120l20 56H400z" fill="#868594"/><rect x="348" y="474" width="264" height="19" rx="8" fill="#aaa9b7"/><text x="480" y="523" text-anchor="middle" fill="#d3caff" font-family="Verdana,sans-serif" font-size="16" letter-spacing="3">ORIGINAL 90s.LAND EDITORIAL ILLUSTRATION</text></svg>
